<svg viewBox="0 0 512.064 512.064" xmlns="http://www.w3.org/2000/svg" xmlns:xlink="http://www.w3.org/1999/xlink" id="Capa_1" overflow="hidden"><path d="M253.705 186.283 167.646 48.085C165.676 44.854 162.104 42.95 158.323 43.114 154.546 43.217 151.105 45.311 149.278 48.618L1.332 316.011C-0.538 319.394-0.432 323.523 1.609 326.806L87.668 465.025C89.624 468.171 93.073 470.077 96.777 470.06L96.99 470.06C100.767 469.957 104.208 467.863 106.035 464.556L253.982 197.1C255.861 193.71 255.755 189.57 253.705 186.283Z" fill="#4CAF50"/><path d="M510.601 323.904C508.683 320.599 505.143 318.572 501.321 318.592L223.988 320.043C220.193 320.058 216.691 322.089 214.793 325.376L140.809 453.781C137.863 458.883 139.611 465.406 144.713 468.352 146.353 469.299 148.216 469.792 150.11 469.781L427.443 468.33C431.239 468.315 434.74 466.284 436.638 462.997L510.643 334.613C512.552 331.295 512.536 327.207 510.601 323.904Z" fill="#2196F3"/><path d="M510.302 281.109 370.42 47.189C368.481 43.953 364.977 41.982 361.204 42.005L211.87 42.795C205.979 42.817 201.221 47.611 201.244 53.502 201.251 55.419 201.775 57.3 202.761 58.944L342.644 292.885C344.583 296.121 348.087 298.092 351.86 298.069L501.193 297.28C507.084 297.258 511.842 292.464 511.819 286.573 511.812 284.656 511.288 282.775 510.302 281.131L510.302 281.109Z" fill="#FFC107"/><g></g><g></g><g></g><g></g><g></g><g></g><g></g><g></g><g></g><g></g><g></g><g></g><g></g><g></g><g></g></svg>